<?xml version="1.0" encoding="UTF-8"?>
<!DOCTYPE svg PUBLIC "-//W3C//DTD SVG 1.1//EN" "http://www.w3.org/Graphics/SVG/1.1/DTD/svg11.dtd">
<svg xmlns="http://www.w3.org/2000/svg" version="1.1" width="2272px" height="1704px" style="shape-rendering:geometricPrecision; text-rendering:geometricPrecision; image-rendering:optimizeQuality; fill-rule:evenodd; clip-rule:evenodd" xmlns:xlink="http://www.w3.org/1999/xlink">
<g><path style="opacity:0.994" fill="#d8261c" d="M 1158.5,641.5 C 1126.97,657.847 1098.97,679.014 1074.5,705C 1043.16,705.833 1011.83,705.667 980.5,704.5C 1049.82,607.138 1144.15,550.638 1263.5,535C 1384.88,525.232 1489.88,561.565 1578.5,644C 1597.4,662.854 1614.4,683.187 1629.5,705C 1598.17,705.667 1566.83,705.667 1535.5,705C 1458.04,626.959 1364.87,594.793 1256,608.5C 1221.75,613.973 1189.25,624.973 1158.5,641.5 Z"/></g>
<g><path style="opacity:0.075" fill="#323a64" d="M 1158.5,641.5 C 1159.83,642.167 1159.83,642.167 1158.5,641.5 Z"/></g>
<g><path style="opacity:0.995" fill="#00396f" d="M 1330.5,647.5 C 1331.5,647.5 1332.5,647.5 1333.5,647.5C 1333.5,688.167 1333.5,728.833 1333.5,769.5C 1360.83,769.5 1388.17,769.5 1415.5,769.5C 1415.83,794.509 1415.5,819.509 1414.5,844.5C 1387.7,844.908 1360.7,844.908 1333.5,844.5C 1333.33,918.167 1333.5,991.834 1334,1065.5C 1337.11,1086.89 1349.44,1096.89 1371,1095.5C 1394.15,1094.34 1415.15,1087 1434,1073.5C 1431.38,1088.47 1427.88,1103.3 1423.5,1118C 1421.07,1128.54 1418.41,1139.04 1415.5,1149.5C 1410.93,1152.41 1406.43,1155.41 1402,1158.5C 1401.67,1158.17 1401.33,1157.83 1401,1157.5C 1389.68,1162.28 1378.34,1165.94 1367,1168.5C 1300.64,1174.3 1262.48,1143.8 1252.5,1077C 1253.66,999.57 1253.83,922.07 1253,844.5C 1230.88,845.585 1208.38,845.585 1185.5,844.5C 1185.5,819.5 1185.5,794.5 1185.5,769.5C 1208.17,769.5 1230.83,769.5 1253.5,769.5C 1253.5,742.5 1253.5,715.5 1253.5,688.5C 1279.64,675.599 1305.31,661.932 1330.5,647.5 Z"/></g>
<g><path style="opacity:0.993" fill="#00396f" d="M 960.5,865.5 C 954.523,872.48 948.523,879.48 942.5,886.5C 919.125,862.031 892.292,847.031 862,841.5C 818.993,836.19 782.327,849.857 752,882.5C 725.804,917.802 717.804,957.469 728,1001.5C 746.907,1062.37 788.407,1092.54 852.5,1092C 880.486,1089.33 905.153,1079 926.5,1061C 931.691,1056.57 936.691,1051.9 941.5,1047C 942.167,1046.33 942.833,1046.33 943.5,1047C 958.381,1065.26 973.381,1083.43 988.5,1101.5C 975.321,1118.02 959.987,1132.02 942.5,1143.5C 905.846,1166.05 865.513,1174.39 821.5,1168.5C 757.17,1161.93 707.003,1131.93 671,1078.5C 648.224,1038 638.39,994.167 641.5,947C 644.64,912.905 655.14,880.738 673,850.5C 709.224,799.453 758.724,770.619 821.5,764C 889.976,755.75 945.643,778.25 988.5,831.5C 979.159,842.864 969.825,854.197 960.5,865.5 Z"/></g>
<g><path style="opacity:0.991" fill="#01396f" d="M 1034.5,768.5 C 1061.41,768.172 1088.24,768.505 1115,769.5C 1115.5,900.5 1115.67,1031.5 1115.5,1162.5C 1088.17,1162.5 1060.83,1162.5 1033.5,1162.5C 1033.17,1031.1 1033.5,899.763 1034.5,768.5 Z"/></g>
<g><path style="opacity:0.992" fill="#013a6f" d="M 1496.5,768.5 C 1523.41,768.172 1550.24,768.505 1577,769.5C 1577.5,900.5 1577.67,1031.5 1577.5,1162.5C 1550.17,1162.5 1522.83,1162.5 1495.5,1162.5C 1495.17,1031.1 1495.5,899.763 1496.5,768.5 Z"/></g>
<g><path style="opacity:0.075" fill="#323a64" d="M 960.5,865.5 C 961.833,866.167 961.833,866.167 960.5,865.5 Z"/></g>
<g><path style="opacity:0.075" fill="#323a64" d="M 942.5,1143.5 C 943.833,1144.17 943.833,1144.17 942.5,1143.5 Z"/></g>
</svg>
